name Run_20002_GRF.mot
datacolumns 19
datarows 28
range 2.14 2.167
endheader
time	     ground_force_vx	     ground_force_vy	     ground_force_vz	     ground_force_px	     ground_force_py	     ground_force_pz	   l_ground_force_vx	   l_ground_force_vy	   l_ground_force_vz	   l_ground_force_px	   l_ground_force_py	   l_ground_force_pz	     ground_torque_x	     ground_torque_y	     ground_torque_z	   l_ground_torque_x	   l_ground_torque_y	   l_ground_torque_z	
2.14	          0.00000000	          0.00000000	          0.00000000	          0.00000000	          0.00000000	          0.00000000	          0.00000000	          0.00000000	          0.00000000	          0.00000000	          0.00000000	          0.00000000	          0.00000000	          0.00000000	          0.00000000	          0.00000000	          0.00000000	          0.00000000	
2.141	          0.00000000	          0.00000000	          0.00000000	          0.00000000	          0.00000000	          0.00000000	          0.00000000	          0.00000000	          0.00000000	          0.00000000	          0.00000000	          0.00000000	          0.00000000	          0.00000000	          0.00000000	          0.00000000	          0.00000000	          0.00000000	
2.142	          0.00000000	          0.00000000	          0.00000000	          0.00000000	          0.00000000	          0.00000000	        -14.60454100	         31.84265900	          4.14781300	          1.07851100	          0.00000000	         -0.41070300	          0.00000000	          0.00000000	          0.00000000	          0.00000000	         -0.16877600	          0.00000000	
2.143	          0.00000000	          0.00000000	          0.00000000	          0.00000000	          0.00000000	          0.00000000	        -15.98672900	         36.21099100	          4.59004700	          1.07899900	          0.00000000	         -0.41175100	          0.00000000	          0.00000000	          0.00000000	          0.00000000	         -0.33650900	          0.00000000	
2.144	          0.00000000	          0.00000000	          0.00000000	          0.00000000	          0.00000000	          0.00000000	        -17.42088700	         41.08115400	          5.07158000	          1.07951300	          0.00000000	         -0.41270700	          0.00000000	          0.00000000	          0.00000000	          0.00000000	         -0.50863100	          0.00000000	
2.145	          0.00000000	          0.00000000	          0.00000000	          0.00000000	          0.00000000	          0.00000000	        -18.89687200	         46.49654000	          5.59443600	          1.08005100	          0.00000000	         -0.41356800	          0.00000000	          0.00000000	          0.00000000	          0.00000000	         -0.68469300	          0.00000000	
2.146	          0.00000000	          0.00000000	          0.00000000	          0.00000000	          0.00000000	          0.00000000	        -20.40271000	         52.50234600	          6.16055800	          1.08061300	          0.00000000	         -0.41433100	          0.00000000	          0.00000000	          0.00000000	          0.00000000	         -0.86421700	          0.00000000	
2.147	          0.00000000	          0.00000000	          0.00000000	          0.00000000	          0.00000000	          0.00000000	        -21.92466000	         59.14532500	          6.77177700	          1.08119200	          0.00000000	         -0.41499500	          0.00000000	          0.00000000	          0.00000000	          0.00000000	         -1.04669400	          0.00000000	
2.148	          0.00000000	          0.00000000	          0.00000000	          0.00000000	          0.00000000	          0.00000000	        -23.44730900	         66.47345000	          7.42977100	          1.08178500	          0.00000000	         -0.41555700	          0.00000000	          0.00000000	          0.00000000	          0.00000000	         -1.23159000	          0.00000000	
2.149	          0.00000000	          0.00000000	          0.00000000	          0.00000000	          0.00000000	          0.00000000	        -24.95375800	         74.53554500	          8.13602900	          1.08238400	          0.00000000	         -0.41601900	          0.00000000	          0.00000000	          0.00000000	          0.00000000	         -1.41834400	          0.00000000	
2.15	          0.00000000	          0.00000000	          0.00000000	          0.00000000	          0.00000000	          0.00000000	        -26.42587100	         83.38080600	          8.89180300	          1.08298300	          0.00000000	         -0.41637900	          0.00000000	          0.00000000	          0.00000000	          0.00000000	         -1.60637300	          0.00000000	
2.151	          0.00000000	          0.00000000	          0.00000000	          0.00000000	          0.00000000	          0.00000000	        -27.84459100	         93.05822800	          9.69806700	          1.08357500	          0.00000000	         -0.41663900	          0.00000000	          0.00000000	          0.00000000	          0.00000000	         -1.79507200	          0.00000000	
2.152	          0.00000000	          0.00000000	          0.00000000	          0.00000000	          0.00000000	          0.00000000	        -29.19036100	        103.61599700	         10.55546700	          1.08415000	          0.00000000	         -0.41680000	          0.00000000	          0.00000000	          0.00000000	          0.00000000	         -1.98381700	          0.00000000	
2.153	          0.00000000	          0.00000000	          0.00000000	          0.00000000	          0.00000000	          0.00000000	        -30.44357100	        115.10072300	         11.46427300	          1.08470100	          0.00000000	         -0.41686600	          0.00000000	          0.00000000	          0.00000000	          0.00000000	         -2.17196600	          0.00000000	
2.154	          0.00000000	          0.00000000	          0.00000000	          0.00000000	          0.00000000	          0.00000000	        -31.58510400	        127.55667100	         12.42433100	          1.08522000	          0.00000000	         -0.41683700	          0.00000000	          0.00000000	          0.00000000	          0.00000000	         -2.35886400	          0.00000000	
2.155	          0.00000000	          0.00000000	          0.00000000	          0.00000000	          0.00000000	          0.00000000	        -32.59691600	        141.02482600	         13.43500800	          1.08570000	          0.00000000	         -0.41671900	          0.00000000	          0.00000000	          0.00000000	          0.00000000	         -2.54384700	          0.00000000	
2.156	          0.00000000	          0.00000000	          0.00000000	          0.00000000	          0.00000000	          0.00000000	        -33.46262400	        155.54194600	         14.49514600	          1.08613200	          0.00000000	         -0.41651300	          0.00000000	          0.00000000	          0.00000000	          0.00000000	         -2.72623800	          0.00000000	
2.157	          0.00000000	          0.00000000	          0.00000000	          0.00000000	          0.00000000	          0.00000000	        -34.16812900	        171.13951100	         15.60301200	          1.08651200	          0.00000000	         -0.41622500	          0.00000000	          0.00000000	          0.00000000	          0.00000000	         -2.90536100	          0.00000000	
2.158	          0.00000000	          0.00000000	          0.00000000	          0.00000000	          0.00000000	          0.00000000	        -34.70219800	        187.84263600	         16.75625800	          1.08683400	          0.00000000	         -0.41585700	          0.00000000	          0.00000000	          0.00000000	          0.00000000	         -3.08053500	          0.00000000	
2.159	          0.00000000	          0.00000000	          0.00000000	          0.00000000	          0.00000000	          0.00000000	        -35.05698000	        205.66896100	         17.95186800	          1.08709600	          0.00000000	         -0.41541500	          0.00000000	          0.00000000	          0.00000000	          0.00000000	         -3.25108100	          0.00000000	
2.16	          0.00000000	          0.00000000	          0.00000000	          0.00000000	          0.00000000	          0.00000000	        -35.22846600	        224.62756300	         19.18613400	          1.08729500	          0.00000000	         -0.41490300	          0.00000000	          0.00000000	          0.00000000	          0.00000000	         -3.41632700	          0.00000000	
2.161	          0.00000000	          0.00000000	          0.00000000	          0.00000000	          0.00000000	          0.00000000	        -35.21681600	        244.71778900	         20.45461700	          1.08743200	          0.00000000	         -0.41432600	          0.00000000	          0.00000000	          0.00000000	          0.00000000	         -3.57560800	          0.00000000	
2.162	          0.00000000	          0.00000000	          0.00000000	          0.00000000	          0.00000000	          0.00000000	        -35.02656900	        265.92831400	         21.75212700	          1.08750700	          0.00000000	         -0.41368900	          0.00000000	          0.00000000	          0.00000000	          0.00000000	         -3.72827600	          0.00000000	
2.163	          0.00000000	          0.00000000	          0.00000000	          0.00000000	          0.00000000	          0.00000000	        -34.66668700	        288.23614500	         23.07271000	          1.08752400	          0.00000000	         -0.41299600	          0.00000000	          0.00000000	          0.00000000	          0.00000000	         -3.87369600	          0.00000000	
2.164	          0.00000000	          0.00000000	          0.00000000	          0.00000000	          0.00000000	          0.00000000	        -34.15047100	        311.60586500	         24.40964700	          1.08748700	          0.00000000	         -0.41225500	          0.00000000	          0.00000000	          0.00000000	          0.00000000	         -4.01125600	          0.00000000	
2.165	          0.00000000	          0.00000000	          0.00000000	          0.00000000	          0.00000000	          0.00000000	        -33.49525500	        335.98907500	         25.75545900	          1.08740200	          0.00000000	         -0.41146800	          0.00000000	          0.00000000	          0.00000000	          0.00000000	         -4.14036600	          0.00000000	
2.166	          0.00000000	          0.00000000	          0.00000000	          0.00000000	          0.00000000	          0.00000000	        -32.72202300	        361.32391400	         27.10193300	          1.08727400	          0.00000000	         -0.41064400	          0.00000000	          0.00000000	          0.00000000	          0.00000000	         -4.26046500	          0.00000000	
2.167	          0.00000000	          0.00000000	          0.00000000	          0.00000000	          0.00000000	          0.00000000	        -31.85482600	        387.53506500	         28.44016100	          1.08711100	          0.00000000	         -0.40978600	          0.00000000	          0.00000000	          0.00000000	          0.00000000	         -4.37102600	          0.00000000	
